inDegrees=no
num_controls=7
num_derivatives=13
num_iterations=123
num_multipliers=7
num_parameters=0
num_slacks=7
num_states=26
objective=0.497127
objective_accelerations=0.041851
objective_balance=0.003553
objective_effort=0.039547
objective_height=0.406341
objective_ligament=0.005834
solver_duration=1410.847429
status=Solve_Succeeded
success=true
DataType=double
version=3
OpenSimVersion=4.5
endheader
time	/jointset/ground_pelvis/pelvis_tilt/value	/jointset/ground_pelvis/pelvis_tx/value	/jointset/ground_pelvis/pelvis_ty/value	/jointset/hip_r/hip_flexion_r/value	/jointset/hip_r/hip_adduction_r/value	/jointset/hip_r/hip_rotation_r/value	/jointset/back/lumbar_extension/value	/jointset/patellofemoral_r/patellar_flexion_r/value	/jointset/knee_r/knee_flexion_r/value	/jointset/knee_r/knee_adduction_r/value	/jointset/knee_r/knee_rotation_r/value	/jointset/ankle_r/ankle_angle_r/value	/jointset/subtalar_r/subtalar_angle_r/value	/jointset/ground_pelvis/pelvis_tilt/speed	/jointset/ground_pelvis/pelvis_tx/speed	/jointset/ground_pelvis/pelvis_ty/speed	/jointset/hip_r/hip_flexion_r/speed	/jointset/hip_r/hip_adduction_r/speed	/jointset/hip_r/hip_rotation_r/speed	/jointset/back/lumbar_extension/speed	/jointset/patellofemoral_r/patellar_flexion_r/speed	/jointset/knee_r/knee_flexion_r/speed	/jointset/knee_r/knee_adduction_r/speed	/jointset/knee_r/knee_rotation_r/speed	/jointset/ankle_r/ankle_angle_r/speed	/jointset/subtalar_r/subtalar_angle_r/speed	/forceset/tau_hip_flexion_r	/forceset/tau_hip_adduction_r	/forceset/tau_hip_rotation_r	/forceset/tau_knee_flexion_r	/forceset/tau_ankle_angle_r	/forceset/tau_subtalar_angle_r	/forceset/tau_lumbar_extension	lambda_cid13_p0	lambda_cid14_p0	lambda_cid14_p1	lambda_cid14_p2	lambda_cid14_p3	lambda_cid14_p4	lambda_cid14_p5	/jointset/ground_pelvis/pelvis_tilt/accel	/jointset/ground_pelvis/pelvis_tx/accel	/jointset/ground_pelvis/pelvis_ty/accel	/jointset/hip_r/hip_flexion_r/accel	/jointset/hip_r/hip_adduction_r/accel	/jointset/hip_r/hip_rotation_r/accel	/jointset/back/lumbar_extension/accel	/jointset/patellofemoral_r/patellar_flexion_r/accel	/jointset/knee_r/knee_flexion_r/accel	/jointset/knee_r/knee_adduction_r/accel	/jointset/knee_r/knee_rotation_r/accel	/jointset/ankle_r/ankle_angle_r/accel	/jointset/subtalar_r/subtalar_angle_r/accel	gamma_cid13_p0	gamma_cid14_p0	gamma_cid14_p1	gamma_cid14_p2	gamma_cid14_p3	gamma_cid14_p4	gamma_cid14_p5
1	-0.246352065215507	0.01288178754406727	0.6980986570241865	1.305091405763057	-0.2479320061617013	0.01142381463496711	-0.4363005529535391	1.301896934573041	1.301896934573262	0.02931493046650535	0.1745239630675199	0.4363112181944132	0.08200393250453797	-0.001068173631847522	0.004141974465790897	0.01514057312192134	-0.04058558919363432	0.0009979732672903525	-0.01732169679011387	0.003461374819027402	-0.04933751869204078	-0.04933751869204469	-0.005359729260065222	8.539942273670285e-06	-0.009291467335296327	-0.001165123154036452	-0.2450614989586871	0.0189386945665315	0.01942643620134394	-0.4915755412147317	-0.007202298744540053	0.0003662416334977997	0.2765690741260953	-0.05771731112471444	-51.09373666369512	-9.338401830237343	2.578502029765228	16.8402524722897	-792.6121030233149	58.83547247739238	1.153644878541533	0.09787623247365915	1.595106979914614	-4.94695570525041	0.01119623119257517	-1.116447613008049	0.2372007982860565	-5.003570130082608	-5.003570130082789	0.2236229347954386	0.007165880619796412	-1.436215745371458	-0.4612446498350439	5.83664157411113e-10	-3.080141818412857e-09	3.911478102789306e-09	4.389148192425073e-09	7.023940076989579e-09	-3.772656822671826e-09	1.619465073345583e-09
1.01	-0.2463061901804103	0.01292819123708768	0.6983296264505878	1.304439481031315	-0.247921366709708	0.01119530908981616	-0.4362518351183969	1.301153623648424	1.301153623648423	0.0292727985564943	0.1745240457365638	0.4361466239596355	0.0819694266593675	0.01019672090030736	0.005150474179557742	0.03104775655262578	-0.08976406034222999	0.001130771466641875	-0.02837082368455528	0.006432133625931175	-0.09932892406093778	-0.09932892406094646	-0.003057560088131973	6.360946932747126e-06	-0.02362002965746038	-0.005731234568456554	-0.2459631323875386	0.01913779507652543	0.01942248126281109	-0.4906641218866723	-0.008196772537371208	0.0004754605378650799	0.2774380109035717	-0.05975983226833085	-51.41853742127336	-9.339021759016337	2.568530160754795	16.913839129749	-792.9097866091719	58.76342157640965	1.105943226534528	0.1040943300413615	1.587689309955684	-4.897998031663629	0.01445135171326854	-1.097857845595217	0.3495046342378871	-4.997564562544786	-4.997564562545321	0.2348795771090486	-0.004152852734842219	-1.430074945075931	-0.4535695765571058	7.375990694861287e-10	-2.615521214929937e-09	1.507143076333838e-08	5.448033005352913e-09	4.935883307220872e-09	-6.838261946869799e-09	1.267283842506064e-08
1.02	-0.2461490599027958	0.01298503142508841	0.6987195007683576	1.303296830545687	-0.2479093733282399	0.01085656975213547	-0.4361689114527139	1.299910270905666	1.299910270905445	0.02925396147194874	0.1745240580030293	0.4358389644077464	0.08188940466219057	0.02118287487174392	0.006229273461854343	0.04692155139561315	-0.1387307399708068	0.001268759162264632	-0.03936845529631736	0.01030254092664738	-0.1493458823198971	-0.1493458823199072	-0.0007007641675282068	-5.540573360275495e-06	-0.03790453075710613	-0.01026835355534095	-0.2468647658163965	0.01933689558652455	0.01941852632425621	-0.4897527025586139	-0.009191246330200104	0.0005846794422423616	0.2783069476810419	-0.06354883718766666	-51.75403829186976	-9.339163060999113	2.555795417162049	17.00868025442695	-793.3790919886155	58.70075059640136	1.097896766397838	0.1119361461796334	1.588429262371204	-4.904597401246654	0.01223413044682144	-1.106148556472182	0.4171304970485092	-5.008680708095075	-5.008680708094597	0.234548284529544	0.005221375629374533	-1.427403500867761	-0.4554461643278922	1.301012994624668e-09	-2.408906380526692e-09	2.430320391798035e-08	1.027695080478319e-08	4.146786313378239e-09	-9.608900469737574e-09	2.208989035243502e-08
1.03	-0.2458832418474306	0.01305301690125117	0.6992679180999442	1.301665416125083	-0.2478959413637356	0.01040804909741354	-0.4360432045561346	1.298166650606304	1.298166650606283	0.02925885581189094	0.1745238867300267	0.435388658080125	0.08176422020513313	0.03195397679713402	0.007380178471807435	0.06275325614015356	-0.187529941174803	0.001422136163802581	-0.05033277207814024	0.01495004572547927	-0.1993792944071097	-0.199379294407129	0.001677687854965626	-3.286605814692591e-05	-0.05215152985710297	-0.01475675355563834	-0.2473005074700679	0.01945056160899661	0.01942581244702224	-0.4887298903373661	-0.009764462250716347	0.0006575043900326554	0.2787828591562276	-0.06961747622485984	-51.92843657183193	-9.323842166252247	2.537099955635361	17.00553201171894	-793.3933755249458	58.6452155007032	1.062703646592969	0.1185218531171323	1.579239771194544	-4.864250658046255	0.01756850090465464	-1.091138974114853	0.5052415716591028	-5.000839364388344	-5.000839364389945	0.2392054990199328	-0.007327389835711843	-1.422568981608992	-0.4437620495900384	1.868605277039367e-09	-2.204924258052834e-09	3.351530177154162e-08	1.514433832856556e-08	3.370944011126696e-09	-1.237652912932647e-08	3.149024512241816e-08
1.04	-0.2455105154246149	0.01313288226245627	0.6999743922171159	1.299546675856827	-0.2478808398260362	0.009849972127858988	-0.4358676863914938	1.295922662604999	1.295922662605176	0.02928747703964492	0.1745233186263166	0.4347960375880943	0.08159450672173085	0.04256454836185872	0.008605250470322392	0.0785329085126495	-0.2361959095016068	0.001602673801233625	-0.06127971826306288	0.02026479453865299	-0.2494194227084826	-0.2494194227085108	0.004044613393883833	-8.490671505429409e-05	-0.06636736363883332	-0.01917415882431069	-0.2477362491237323	0.01956422763147398	0.01943309856975325	-0.4877070781161183	-0.01033767817123166	0.0007303293378326684	0.2792587706314199	-0.07871792938591259	-52.11350783610838	-9.307943117269785	2.515517495422731	17.0223648777356	-793.5795292406691	58.59954152817356	1.065790694264728	0.1267695438920284	1.578018787962313	-4.877950825808202	0.01766625762543959	-1.102674437092133	0.5505792999168531	-5.010023950927125	-5.01002395092662	0.232242987814421	0.0002783412052309959	-1.421170437214431	-0.4412472180028761	1.951092370451216e-09	-2.000769249357063e-09	4.14824346310498e-08	1.695722501418561e-08	2.262725452628074e-09	-1.421160501236087e-08	3.854434242532721e-08
1.05	-0.2450327311896955	0.01322537686263118	0.7008382929383152	1.296942359261526	-0.2478638176094222	0.009182534038500835	-0.4356353921352961	1.293178373749226	1.293178373749223	0.02933974221923813	0.1745221845554996	0.4340613724847796	0.08138093639996587	0.05293806337811777	0.009906826668535677	0.0942272040865587	-0.284600174022169	0.001805157480891518	-0.07220033231049941	0.02633836857353807	-0.2994257037442827	-0.2994257037443147	0.006410571078062009	-0.0001411148419431621	-0.08056437410171614	-0.02353027953432057	-0.2478689964922829	0.01962271870653629	0.01945066575702624	-0.4863826213550058	-0.01071941012816188	0.000788133878926174	0.2794996860282826	-0.09181375721270636	-52.20951326984046	-9.278926665567763	2.487222125821838	16.97831469617458	-793.306314269891	58.54040360766572	1.014997326071148	0.1338254409539212	1.56212697426797	-4.811578551901533	0.02205233223291358	-1.085622029969491	0.6573932361102292	-4.994033879002147	-4.994033879003013	0.2390996852352267	-0.008445015606979621	-1.418775965849319	-0.4313404438832075	2.018419926706727e-09	-1.796608837966858e-09	4.941066233449381e-08	1.867465854861311e-08	1.144120136121733e-09	-1.601753862112795e-08	4.55251191823902e-08
